<mxfile host="65bd71144e" modified="2021-01-21T07:17:49.673Z" agent="5.0 (Macintosh; Intel Mac OS X 11_0_0) AppleWebKit/537.36 (KHTML, like Gecko) Code/1.52.1 Chrome/83.0.4103.122 Electron/9.3.5 Safari/537.36" version="13.10.0" etag="z-v64XhkBoj_5RBT8BC9" type="embed">
    <diagram id="Fsx2oadK0WOipy5CTWDe" name="Page-1">
        <mxGraphModel dx="650" dy="380" grid="0" gridSize="10" guides="1" tooltips="1" connect="1" arrows="1" fold="1" page="1" pageScale="1" pageWidth="2339" pageHeight="3300" background="#FFFFFF" math="0" shadow="0">
            <root>
                <mxCell id="0"/>
                <mxCell id="1" parent="0"/>
                <mxCell id="7" value="Side Tables" style="rounded=1;whiteSpace=wrap;html=1;strokeColor=#FFFFFF;verticalAlign=bottom;labelPosition=center;verticalLabelPosition=top;align=center;fontColor=#000000;" vertex="1" parent="1">
                    <mxGeometry x="295" y="215" width="120" height="328" as="geometry"/>
                </mxCell>
                <mxCell id="8" value="" style="rounded=1;whiteSpace=wrap;html=1;strokeColor=#FFFFFF;" vertex="1" parent="1">
                    <mxGeometry x="450" y="399.75" width="120" height="124.5" as="geometry"/>
                </mxCell>
                <mxCell id="9" value="" style="rounded=1;whiteSpace=wrap;html=1;strokeColor=#FFFFFF;" vertex="1" parent="1">
                    <mxGeometry x="305.5" y="506" width="99" height="30" as="geometry"/>
                </mxCell>
                <mxCell id="10" value="&lt;font style=&quot;font-size: 10px&quot;&gt;Side Table&lt;/font&gt;" style="rounded=0;whiteSpace=wrap;html=1;strokeColor=none;" vertex="1" parent="1">
                    <mxGeometry x="328" y="514" width="54" height="14" as="geometry"/>
                </mxCell>
                <mxCell id="12" value="" style="rounded=1;whiteSpace=wrap;html=1;strokeColor=#FFFFFF;" vertex="1" parent="1">
                    <mxGeometry x="305.5" y="224" width="99" height="42" as="geometry"/>
                </mxCell>
                <mxCell id="13" value="&lt;font style=&quot;font-size: 10px&quot;&gt;Side Table&lt;/font&gt;" style="rounded=0;whiteSpace=wrap;html=1;strokeColor=none;" vertex="1" parent="1">
                    <mxGeometry x="328" y="238" width="54" height="14" as="geometry"/>
                </mxCell>
                <mxCell id="14" value="" style="rounded=1;whiteSpace=wrap;html=1;strokeColor=#FFFFFF;" vertex="1" parent="1">
                    <mxGeometry x="305.5" y="277" width="99" height="42" as="geometry"/>
                </mxCell>
                <mxCell id="15" value="&lt;font style=&quot;font-size: 10px&quot;&gt;Side Table&lt;/font&gt;" style="rounded=0;whiteSpace=wrap;html=1;strokeColor=none;" vertex="1" parent="1">
                    <mxGeometry x="328" y="291" width="54" height="14" as="geometry"/>
                </mxCell>
                <mxCell id="16" value="" style="rounded=1;whiteSpace=wrap;html=1;strokeColor=#FFFFFF;" vertex="1" parent="1">
                    <mxGeometry x="305.5" y="330" width="99" height="42" as="geometry"/>
                </mxCell>
                <mxCell id="17" value="&lt;font style=&quot;font-size: 10px&quot;&gt;Side Table&lt;/font&gt;" style="rounded=0;whiteSpace=wrap;html=1;strokeColor=none;" vertex="1" parent="1">
                    <mxGeometry x="328" y="344" width="54" height="14" as="geometry"/>
                </mxCell>
                <mxCell id="18" value="" style="rounded=1;whiteSpace=wrap;html=1;strokeColor=#FFFFFF;" vertex="1" parent="1">
                    <mxGeometry x="305.5" y="383" width="99" height="99" as="geometry"/>
                </mxCell>
                <mxCell id="19" value="&lt;font style=&quot;font-size: 10px&quot;&gt;Side Table&lt;/font&gt;" style="rounded=0;whiteSpace=wrap;html=1;fillColor=none;strokeColor=none;" vertex="1" parent="1">
                    <mxGeometry x="328" y="383" width="54" height="14" as="geometry"/>
                </mxCell>
                <mxCell id="20" value="&lt;span style=&quot;font-size: 10px&quot;&gt;...&lt;/span&gt;" style="rounded=0;whiteSpace=wrap;html=1;strokeColor=none;" vertex="1" parent="1">
                    <mxGeometry x="319.5" y="485" width="71" height="14" as="geometry"/>
                </mxCell>
                <mxCell id="26" value="" style="rounded=0;fillColor=none;align=center;verticalAlign=middle;html=1;labelPosition=center;verticalLabelPosition=middle;fontSize=10;" vertex="1" parent="1">
                    <mxGeometry x="310" y="402" width="90" height="24" as="geometry"/>
                </mxCell>
                <mxCell id="31" value="spinlock_t slock&lt;br style=&quot;font-size: 8px;&quot;&gt;" style="rounded=0;whiteSpace=wrap;html=1;fontSize=8;align=center;fillColor=none;strokeColor=none;fontColor=#FFFFFF;" vertex="1" parent="1">
                    <mxGeometry x="324.5" y="406" width="61" height="13" as="geometry"/>
                </mxCell>
                <mxCell id="36" value="&lt;font style=&quot;font-size: 8px&quot; color=&quot;#ffffff&quot;&gt;RefcountMap refcnts&lt;/font&gt;" style="rounded=0;whiteSpace=wrap;html=1;fontSize=8;align=center;fillColor=none;fontColor=#00CC00;strokeColor=none;" vertex="1" parent="1">
                    <mxGeometry x="307" y="431.5" width="96" height="13" as="geometry"/>
                </mxCell>
                <mxCell id="41" value="" style="rounded=0;fillColor=none;align=center;verticalAlign=middle;html=1;labelPosition=center;verticalLabelPosition=middle;fontSize=10;" vertex="1" parent="1">
                    <mxGeometry x="310" y="426" width="90" height="24" as="geometry"/>
                </mxCell>
                <mxCell id="42" value="" style="rounded=0;fillColor=none;align=center;verticalAlign=middle;html=1;labelPosition=center;verticalLabelPosition=middle;fontSize=10;" vertex="1" parent="1">
                    <mxGeometry x="310" y="450" width="90" height="24" as="geometry"/>
                </mxCell>
                <mxCell id="43" value="weak_table_t weak_table" style="rounded=0;whiteSpace=wrap;html=1;fontSize=7;align=center;fillColor=none;strokeColor=none;fontColor=#FFFFFF;" vertex="1" parent="1">
                    <mxGeometry x="308" y="453" width="94" height="13" as="geometry"/>
                </mxCell>
                <mxCell id="45" value="" style="endArrow=classic;html=1;fontSize=7;fontColor=#FFFFFF;entryX=0;entryY=0.5;entryDx=0;entryDy=0;exitX=1;exitY=0.5;exitDx=0;exitDy=0;fillColor=#1ba1e2;strokeColor=#006EAF;" edge="1" parent="1" source="42" target="8">
                    <mxGeometry width="50" height="50" relative="1" as="geometry">
                        <mxPoint x="476" y="520" as="sourcePoint"/>
                        <mxPoint x="526" y="470" as="targetPoint"/>
                    </mxGeometry>
                </mxCell>
                <mxCell id="46" value="&lt;span style=&quot;font-size: 10px&quot;&gt;weak_table_t&lt;br&gt;&lt;/span&gt;" style="rounded=0;whiteSpace=wrap;html=1;fillColor=none;strokeColor=none;" vertex="1" parent="1">
                    <mxGeometry x="483" y="400.5" width="54" height="14" as="geometry"/>
                </mxCell>
                <mxCell id="47" value="" style="rounded=0;fillColor=none;align=center;verticalAlign=middle;html=1;labelPosition=center;verticalLabelPosition=middle;fontSize=10;" vertex="1" parent="1">
                    <mxGeometry x="456" y="419" width="108" height="24" as="geometry"/>
                </mxCell>
                <mxCell id="48" value="weak_entry_t *weak_entries" style="rounded=0;whiteSpace=wrap;html=1;fontSize=8;align=center;fillColor=none;strokeColor=none;fontColor=#FFFFFF;" vertex="1" parent="1">
                    <mxGeometry x="457" y="423" width="105" height="13" as="geometry"/>
                </mxCell>
                <mxCell id="49" value="" style="rounded=0;fillColor=none;align=center;verticalAlign=middle;html=1;labelPosition=center;verticalLabelPosition=middle;fontSize=10;" vertex="1" parent="1">
                    <mxGeometry x="456" y="443" width="108" height="24" as="geometry"/>
                </mxCell>
                <mxCell id="50" value="size_t num_entries" style="rounded=0;whiteSpace=wrap;html=1;fontSize=8;align=center;fillColor=none;strokeColor=none;fontColor=#FFFFFF;" vertex="1" parent="1">
                    <mxGeometry x="469" y="447" width="82" height="13" as="geometry"/>
                </mxCell>
                <mxCell id="51" value="" style="rounded=0;fillColor=none;align=center;verticalAlign=middle;html=1;labelPosition=center;verticalLabelPosition=middle;fontSize=10;" vertex="1" parent="1">
                    <mxGeometry x="456" y="467" width="108" height="24" as="geometry"/>
                </mxCell>
                <mxCell id="52" value="uintptr_t mask" style="rounded=0;whiteSpace=wrap;html=1;fontSize=8;align=center;fillColor=none;strokeColor=none;fontColor=#FFFFFF;" vertex="1" parent="1">
                    <mxGeometry x="469" y="471" width="82" height="13" as="geometry"/>
                </mxCell>
                <mxCell id="53" value="" style="rounded=0;fillColor=none;align=center;verticalAlign=middle;html=1;labelPosition=center;verticalLabelPosition=middle;fontSize=10;" vertex="1" parent="1">
                    <mxGeometry x="456" y="491" width="108" height="24" as="geometry"/>
                </mxCell>
                <mxCell id="54" value="&lt;p class=&quot;p1&quot; style=&quot;margin: 0px ; font-stretch: normal ; font-size: 8px ; line-height: normal ; font-family: &amp;#34;iconfont&amp;#34;&quot;&gt;&lt;span class=&quot;s1&quot; style=&quot;font-size: 8px&quot;&gt;uintptr_t&lt;/span&gt;&lt;span class=&quot;s2&quot; style=&quot;font-size: 8px&quot;&gt; &lt;/span&gt;max_hash_displacement&lt;/p&gt;" style="rounded=0;whiteSpace=wrap;html=1;fontSize=8;align=center;fillColor=none;strokeColor=none;" vertex="1" parent="1">
                    <mxGeometry x="468.5" y="496.5" width="82" height="13" as="geometry"/>
                </mxCell>
            </root>
        </mxGraphModel>
    </diagram>
</mxfile>